<svg id="visual" viewBox="0 0 1400 900" width="1400" height="900" xmlns="http://www.w3.org/2000/svg" xmlns:xlink="http://www.w3.org/1999/xlink" version="1.1"><rect x="0" y="0" width="1400" height="900" fill="#10B981"></rect><defs><linearGradient id="grad1_0" x1="35.7%" y1="0%" x2="100%" y2="100%"><stop offset="18.888888888888886%" stop-color="#10b981" stop-opacity="1"></stop><stop offset="81.11111111111111%" stop-color="#10b981" stop-opacity="1"></stop></linearGradient></defs><defs><linearGradient id="grad2_0" x1="0%" y1="0%" x2="64.3%" y2="100%"><stop offset="18.888888888888886%" stop-color="#10b981" stop-opacity="1"></stop><stop offset="81.11111111111111%" stop-color="#10b981" stop-opacity="1"></stop></linearGradient></defs><g transform="translate(1400, 0)"><path d="M0 249.6C-31.5 245.8 -62.9 242 -95.5 230.6C-128.2 219.3 -162 200.4 -171.1 171.1C-180.3 141.8 -164.7 102.2 -173.7 71.9C-182.7 41.7 -216.2 20.8 -249.6 0L0 0Z" fill="#2A3539"></path></g><g transform="translate(0, 900)"><path d="M0 -249.6C16.7 -208.7 33.4 -167.7 67 -161.7C100.5 -155.7 151 -184.7 176.5 -176.5C202 -168.3 202.6 -122.9 210.6 -87.3C218.7 -51.6 234.2 -25.8 249.6 0L0 0Z" fill="#2A3539"></path></g></svg>