<svg id="visual" viewBox="0 0 960 100" width="960" height="100" xmlns="http://www.w3.org/2000/svg" xmlns:xlink="http://www.w3.org/1999/xlink" version="1.1"><rect x="0" y="0" width="960" height="100" fill="#F2F2F2"></rect><path d="M0 50L20 51C40 52 80 54 120 52.2C160 50.3 200 44.7 240 44C280 43.3 320 47.7 360 49C400 50.3 440 48.7 480 43.2C520 37.7 560 28.3 600 23.5C640 18.7 680 18.3 720 22.3C760 26.3 800 34.7 840 34.7C880 34.7 920 26.3 940 22.2L960 18L960 101L940 101C920 101 880 101 840 101C800 101 760 101 720 101C680 101 640 101 600 101C560 101 520 101 480 101C440 101 400 101 360 101C320 101 280 101 240 101C200 101 160 101 120 101C80 101 40 101 20 101L0 101Z" fill="#c2dde6"></path><path d="M0 41L20 45.7C40 50.3 80 59.7 120 60.2C160 60.7 200 52.3 240 49C280 45.7 320 47.3 360 49C400 50.7 440 52.3 480 54.7C520 57 560 60 600 61C640 62 680 61 720 60.5C760 60 800 60 840 58.3C880 56.7 920 53.3 940 51.7L960 50L960 101L940 101C920 101 880 101 840 101C800 101 760 101 720 101C680 101 640 101 600 101C560 101 520 101 480 101C440 101 400 101 360 101C320 101 280 101 240 101C200 101 160 101 120 101C80 101 40 101 20 101L0 101Z" fill="#71848a"></path><path d="M0 86L20 87C40 88 80 90 120 88.3C160 86.7 200 81.3 240 77.5C280 73.7 320 71.3 360 73.8C400 76.3 440 83.7 480 87.2C520 90.7 560 90.3 600 85.5C640 80.7 680 71.3 720 72C760 72.7 800 83.3 840 83.2C880 83 920 72 940 66.5L960 61L960 101L940 101C920 101 880 101 840 101C800 101 760 101 720 101C680 101 640 101 600 101C560 101 520 101 480 101C440 101 400 101 360 101C320 101 280 101 240 101C200 101 160 101 120 101C80 101 40 101 20 101L0 101Z" fill="#2a3539"></path></svg>