<svg id="visual" viewBox="0 0 960 200" width="960" height="200" xmlns="http://www.w3.org/2000/svg" xmlns:xlink="http://www.w3.org/1999/xlink" version="1.1"><rect x="0" y="0" width="960" height="200" fill="#ffffff"></rect><path d="M0 105L22.8 110.2C45.7 115.3 91.3 125.7 137 126.3C182.7 127 228.3 118 274 112.8C319.7 107.7 365.3 106.3 411.2 104.3C457 102.3 503 99.7 548.8 99.2C594.7 98.7 640.3 100.3 686 107C731.7 113.7 777.3 125.3 823 126.3C868.7 127.3 914.3 117.7 937.2 112.8L960 108L960 0L937.2 0C914.3 0 868.7 0 823 0C777.3 0 731.7 0 686 0C640.3 0 594.7 0 548.8 0C503 0 457 0 411.2 0C365.3 0 319.7 0 274 0C228.3 0 182.7 0 137 0C91.3 0 45.7 0 22.8 0L0 0Z" fill="#92a4ab"></path><path d="M0 90L22.8 86.3C45.7 82.7 91.3 75.3 137 77C182.7 78.7 228.3 89.3 274 87.7C319.7 86 365.3 72 411.2 69.5C457 67 503 76 548.8 80.7C594.7 85.3 640.3 85.7 686 85.5C731.7 85.3 777.3 84.7 823 80C868.7 75.3 914.3 66.7 937.2 62.3L960 58L960 0L937.2 0C914.3 0 868.7 0 823 0C777.3 0 731.7 0 686 0C640.3 0 594.7 0 548.8 0C503 0 457 0 411.2 0C365.3 0 319.7 0 274 0C228.3 0 182.7 0 137 0C91.3 0 45.7 0 22.8 0L0 0Z" fill="#5b6a6f"></path><path d="M0 26L22.8 30C45.7 34 91.3 42 137 43.5C182.7 45 228.3 40 274 39.2C319.7 38.3 365.3 41.7 411.2 38.7C457 35.7 503 26.3 548.8 26.8C594.7 27.3 640.3 37.7 686 43C731.7 48.3 777.3 48.7 823 48.3C868.7 48 914.3 47 937.2 46.5L960 46L960 0L937.2 0C914.3 0 868.7 0 823 0C777.3 0 731.7 0 686 0C640.3 0 594.7 0 548.8 0C503 0 457 0 411.2 0C365.3 0 319.7 0 274 0C228.3 0 182.7 0 137 0C91.3 0 45.7 0 22.8 0L0 0Z" fill="#2a3539"></path></svg>