<svg id="visual" viewBox="0 0 960 100" width="960" height="100" xmlns="http://www.w3.org/2000/svg" xmlns:xlink="http://www.w3.org/1999/xlink" version="1.1"><path d="M0 76L22.8 71C45.7 66 91.3 56 137 53C182.7 50 228.3 54 274 60C319.7 66 365.3 74 411.2 70.8C457 67.7 503 53.3 548.8 46.8C594.7 40.3 640.3 41.7 686 47.7C731.7 53.7 777.3 64.3 823 69.8C868.7 75.3 914.3 75.7 937.2 75.8L960 76L960 101L937.2 101C914.3 101 868.7 101 823 101C777.3 101 731.7 101 686 101C640.3 101 594.7 101 548.8 101C503 101 457 101 411.2 101C365.3 101 319.7 101 274 101C228.3 101 182.7 101 137 101C91.3 101 45.7 101 22.8 101L0 101Z" fill="#F2F2F2" stroke-linecap="round" stroke-linejoin="miter"></path></svg>